<?xml version="1.0" encoding="UTF-8" ?>
<!DOCTYPE svg PUBLIC "-//W3C//DTD SVG 1.1//EN" "http://www.w3.org/Graphics/SVG/1.1/DTD/svg11.dtd">
<svg width="1455pt" height="807pt" viewBox="0 0 1455 807" version="1.1" xmlns="http://www.w3.org/2000/svg">
<g id="#000000ff">
<path fill="#000000" opacity="1.00" d=" M 663.16 0.00 L 663.54 0.00 C 667.00 3.79 671.35 6.57 675.31 9.77 C 698.28 27.51 721.27 45.24 744.79 62.23 C 752.15 67.33 759.25 73.19 767.92 75.90 C 784.71 81.43 802.31 83.90 819.29 88.77 C 836.32 93.53 853.53 100.11 866.66 112.36 C 872.86 117.92 877.05 125.23 882.50 131.46 C 903.35 155.98 929.09 175.71 955.46 193.90 C 943.59 192.03 932.72 186.51 922.38 180.64 C 905.87 170.99 890.44 159.53 876.12 146.87 C 870.75 142.24 866.34 136.58 860.68 132.30 C 852.68 126.22 843.61 121.73 834.40 117.82 C 818.41 111.16 801.73 106.33 784.97 102.05 C 778.16 100.26 771.17 99.07 764.61 96.47 C 754.29 92.45 744.85 86.50 736.01 79.89 C 709.46 59.59 687.62 33.87 667.76 7.17 C 666.02 4.92 664.50 2.51 663.16 0.00 Z" />
<path fill="#000000" opacity="1.00" d=" M 665.58 80.12 C 659.87 62.86 660.34 43.84 665.57 26.53 C 666.07 43.05 670.88 59.35 679.34 73.55 C 693.55 97.80 717.00 115.30 742.30 126.73 C 750.29 130.55 758.66 133.44 767.11 136.04 C 763.09 136.50 759.09 135.55 755.10 135.31 C 734.98 133.26 714.56 128.84 697.05 118.32 C 710.28 145.85 734.22 167.27 761.44 180.58 C 789.07 193.98 819.78 200.39 850.35 201.57 C 847.43 202.86 844.21 203.04 841.12 203.57 C 818.63 207.52 795.47 209.25 772.83 205.57 C 762.37 203.91 752.15 200.83 742.54 196.36 C 756.02 222.65 778.39 243.83 804.43 257.51 C 833.46 272.90 866.39 279.53 899.01 280.94 C 905.21 281.45 911.44 281.17 917.63 280.55 C 917.66 280.76 917.73 281.18 917.76 281.40 C 895.02 287.47 871.65 292.07 848.02 291.78 C 828.26 291.67 808.17 287.97 790.65 278.54 C 775.20 270.36 762.35 257.60 753.52 242.57 C 744.76 227.66 739.39 210.84 737.19 193.72 C 722.27 185.13 709.80 172.38 701.99 157.00 C 694.91 143.49 691.17 128.48 689.60 113.37 C 678.52 105.01 669.87 93.37 665.58 80.12 Z" />
<path fill="#000000" opacity="1.00" d=" M 1018.03 164.06 C 1026.69 157.44 1036.91 152.29 1047.95 151.60 C 1055.13 151.14 1062.34 152.93 1068.72 156.21 C 1078.36 161.01 1088.07 165.84 1096.80 172.19 C 1100.87 175.03 1104.03 179.33 1108.91 180.88 C 1115.83 183.09 1123.11 184.39 1130.40 184.16 C 1130.07 184.49 1129.40 185.15 1129.06 185.48 C 1119.76 192.12 1109.94 198.05 1100.53 204.56 C 1096.72 207.33 1092.11 209.41 1089.60 213.60 C 1084.90 221.13 1081.06 229.16 1077.09 237.09 C 1065.36 261.12 1054.25 285.45 1042.42 309.43 C 1036.94 320.42 1031.47 331.44 1025.14 341.98 C 1018.21 354.20 1006.04 362.08 994.38 369.28 C 968.64 384.42 940.83 395.64 912.90 406.04 C 894.66 412.72 876.21 418.82 857.60 424.36 C 838.54 430.12 819.75 437.30 802.74 447.74 C 778.56 462.28 760.23 484.47 744.66 507.62 C 738.16 517.49 732.24 527.83 728.28 539.00 C 728.50 535.46 729.38 532.02 730.43 528.65 C 739.95 494.85 759.10 463.69 785.50 440.45 C 797.78 429.59 811.59 420.49 826.33 413.32 C 845.17 403.96 865.65 398.76 885.61 392.41 C 915.05 383.14 945.57 374.97 971.49 357.59 C 993.65 342.83 1010.18 321.21 1023.22 298.31 C 1037.38 273.31 1048.69 246.80 1058.82 219.97 C 1062.82 211.81 1069.22 204.95 1076.59 199.73 C 1084.94 196.13 1093.76 193.68 1102.21 190.30 C 1089.42 179.67 1072.33 175.63 1055.97 176.11 C 1032.44 176.61 1010.04 185.32 989.34 195.89 C 997.17 183.90 1006.65 172.83 1018.03 164.06 Z" />
<path fill="#000000" opacity="1.00" d=" M 0.51 294.00 C 133.02 294.00 265.54 293.99 398.06 294.00 C 398.06 306.33 398.06 318.67 398.06 331.00 C 326.73 331.01 255.40 330.99 184.07 331.01 C 173.83 330.97 162.70 332.64 154.90 339.86 C 146.43 347.73 143.50 359.52 141.72 370.52 C 139.00 389.53 139.22 408.78 139.01 427.94 C 138.99 456.29 139.00 484.64 139.00 513.00 C 200.24 513.03 261.48 512.95 322.72 513.04 C 322.68 523.34 322.65 533.64 322.73 543.94 C 261.49 544.07 200.24 543.96 139.00 544.00 C 139.00 573.33 139.00 602.66 139.00 632.00 C 138.78 649.40 139.21 667.04 143.77 683.96 C 148.48 702.17 157.85 719.41 171.82 732.17 C 187.31 746.49 207.53 754.86 228.15 758.39 C 246.25 761.70 264.70 760.43 282.98 760.69 C 321.34 760.69 359.70 760.68 398.06 760.69 C 398.06 773.44 398.07 786.19 398.06 798.94 C 348.03 798.91 297.99 799.01 247.96 798.89 C 209.41 798.04 169.96 790.54 136.56 770.45 C 110.77 755.12 89.91 731.73 77.76 704.29 C 65.73 677.64 61.36 648.09 61.75 619.02 C 61.71 551.67 61.83 484.32 61.68 416.96 C 61.58 402.32 61.44 387.65 60.05 373.06 C 58.88 362.49 57.22 351.60 51.84 342.25 C 48.26 335.93 42.39 331.07 35.63 328.49 C 24.48 324.14 12.29 324.26 0.51 324.31 C 0.49 314.21 0.49 304.10 0.51 294.00 Z" />
<path fill="#000000" opacity="1.00" d=" M 583.44 294.07 C 649.17 293.95 714.89 293.96 780.61 294.06 C 780.46 304.15 780.68 314.23 780.50 324.32 C 766.01 324.48 750.17 325.17 738.07 334.14 C 727.46 342.34 723.98 356.20 722.26 368.86 C 719.39 392.46 720.21 416.31 720.00 440.04 C 720.00 496.00 720.00 551.96 720.00 607.92 C 719.86 630.96 720.92 654.18 716.97 677.00 C 712.17 707.55 699.87 737.66 678.10 760.08 C 656.86 782.33 627.72 795.60 597.82 801.42 C 574.07 806.12 549.66 806.92 525.56 805.19 C 492.50 802.69 458.82 793.49 432.45 772.64 C 409.75 754.98 394.32 729.25 386.44 701.81 C 379.20 676.95 377.14 650.83 377.92 625.03 C 379.08 589.92 386.50 553.87 406.22 524.24 C 421.49 500.94 444.66 483.27 470.74 473.71 C 490.62 466.26 511.83 462.92 532.99 462.17 C 556.50 461.39 580.27 463.40 602.96 469.88 C 616.71 473.69 629.83 479.38 642.74 485.40 C 642.71 457.59 642.86 429.78 642.62 401.97 C 642.25 386.14 642.28 370.11 638.65 354.61 C 636.42 345.05 631.50 335.38 622.57 330.52 C 610.73 324.00 596.72 324.26 583.60 324.30 C 583.34 314.22 583.62 304.15 583.44 294.07 M 532.49 502.71 C 517.59 504.50 502.80 509.53 490.93 518.90 C 477.95 528.95 469.25 543.58 463.99 558.94 C 456.64 580.47 454.97 603.44 455.00 626.04 C 455.10 642.03 454.58 658.07 456.06 674.03 C 457.86 693.41 461.92 713.14 472.04 730.03 C 479.22 742.22 490.19 752.13 503.14 757.88 C 520.27 765.58 539.49 766.92 558.02 765.99 C 576.07 764.99 594.62 760.34 608.99 748.89 C 623.74 737.38 632.41 719.83 636.98 702.02 C 643.68 676.60 642.74 650.10 642.74 624.05 C 642.63 598.23 640.22 571.62 629.15 547.94 C 622.27 533.16 611.10 520.15 596.59 512.46 C 577.11 502.00 554.12 500.36 532.49 502.71 Z" />
<path fill="#000000" opacity="1.00" d=" M 829.59 477.61 C 862.10 463.97 898.22 461.04 933.07 464.11 C 966.96 467.22 1000.86 478.70 1027.04 500.97 C 1054.17 523.64 1071.40 556.62 1078.06 591.07 C 1082.33 611.09 1082.15 631.64 1082.00 652.00 C 993.66 652.00 905.32 652.00 816.99 652.00 C 817.41 683.62 829.97 715.20 852.28 737.75 C 867.80 753.47 888.34 763.90 910.01 767.90 C 932.10 772.19 954.82 770.03 976.86 766.50 C 988.98 764.54 1000.96 761.82 1012.86 758.81 C 1014.64 766.23 1016.41 773.65 1018.24 781.07 C 999.75 789.46 980.79 797.17 960.91 801.60 C 940.96 806.07 920.34 806.71 900.00 805.47 C 875.74 803.89 851.52 798.88 829.31 788.82 C 802.53 776.90 779.24 756.97 764.24 731.71 C 745.56 700.72 739.12 663.82 739.80 628.04 C 740.27 594.03 747.65 559.25 766.23 530.35 C 781.21 506.73 803.83 488.32 829.59 477.61 M 866.65 516.48 C 852.31 523.77 840.42 535.49 832.35 549.36 C 821.61 567.69 817.09 589.14 817.00 610.24 C 879.59 610.20 942.18 610.35 1004.77 610.17 C 1004.59 590.99 1002.14 571.44 994.18 553.81 C 988.31 540.69 979.07 528.95 967.11 520.88 C 953.60 511.63 937.28 507.23 921.07 506.27 C 902.50 505.17 883.30 507.84 866.65 516.48 Z" />
<path fill="#000000" opacity="1.00" d=" M 1104.90 477.94 C 1120.51 473.86 1135.48 467.70 1150.99 463.30 C 1155.10 461.85 1158.30 465.72 1159.86 469.01 C 1163.60 476.85 1164.87 485.57 1166.11 494.08 C 1167.92 507.74 1168.47 521.52 1169.64 535.24 C 1173.81 530.15 1176.97 524.32 1181.18 519.24 C 1192.93 503.99 1207.40 490.65 1224.31 481.32 C 1240.44 472.34 1258.57 467.24 1276.93 465.63 C 1296.30 464.11 1316.07 465.16 1334.86 470.37 C 1352.72 475.32 1369.60 485.11 1381.27 499.70 C 1391.31 512.01 1397.19 527.30 1399.58 542.91 C 1401.64 555.52 1401.11 568.33 1401.19 581.06 C 1401.19 628.70 1401.19 676.34 1401.19 723.98 C 1401.31 736.02 1400.58 748.25 1403.22 760.10 C 1404.39 765.85 1408.36 770.58 1413.11 773.83 C 1420.76 779.12 1429.96 781.64 1439.09 782.90 C 1443.32 783.63 1447.82 784.21 1451.50 786.62 C 1454.74 788.98 1456.05 794.79 1452.59 797.51 C 1449.04 800.20 1444.32 800.15 1440.10 799.81 C 1415.78 797.84 1391.43 795.86 1367.01 796.06 C 1343.62 795.99 1320.30 797.99 1297.00 799.87 C 1292.89 800.18 1288.20 799.98 1285.04 796.98 C 1281.95 794.09 1282.43 788.25 1286.25 786.22 C 1291.39 783.53 1297.35 783.34 1302.86 781.79 C 1312.09 779.32 1322.26 777.33 1329.08 770.04 C 1333.59 765.53 1334.64 758.93 1335.31 752.87 C 1336.50 740.62 1336.00 728.31 1336.12 716.03 C 1336.05 671.02 1336.28 626.01 1335.98 581.00 C 1335.43 563.72 1332.22 545.62 1321.83 531.35 C 1313.64 519.95 1300.63 512.74 1287.02 510.01 C 1268.53 506.34 1248.71 507.55 1231.43 515.43 C 1215.88 522.46 1202.96 534.43 1193.19 548.27 C 1181.31 565.09 1174.90 585.48 1173.97 605.98 C 1173.52 649.66 1173.60 693.35 1173.66 737.03 C 1173.88 745.86 1173.79 754.93 1176.58 763.40 C 1180.02 772.07 1189.03 776.61 1197.27 779.71 C 1205.10 782.82 1213.83 782.34 1221.64 785.50 C 1225.87 786.97 1228.35 792.88 1225.55 796.61 C 1222.02 800.12 1216.58 800.18 1211.95 799.84 C 1188.00 797.88 1164.03 795.89 1139.99 796.06 C 1116.45 795.98 1092.98 797.91 1069.54 799.82 C 1065.84 800.07 1061.87 800.23 1058.55 798.36 C 1054.39 796.17 1053.87 789.46 1057.66 786.69 C 1060.14 784.93 1063.21 784.35 1066.13 783.69 C 1074.07 782.15 1081.96 780.19 1089.61 777.52 C 1096.75 774.75 1103.82 769.58 1105.83 761.80 C 1108.15 752.75 1108.10 743.30 1108.19 734.01 C 1108.17 674.65 1108.20 615.30 1108.18 555.94 C 1107.95 545.25 1107.74 534.35 1104.58 524.05 C 1102.00 515.66 1095.28 508.89 1087.13 505.79 C 1077.78 501.77 1066.78 504.50 1057.82 499.24 C 1055.62 498.13 1054.12 495.09 1055.97 493.00 C 1059.67 489.05 1065.24 487.81 1070.21 486.18 C 1081.71 483.18 1093.48 481.28 1104.90 477.94 Z" />
</g>
<g id="#12250e64">
<path fill="#12250e" opacity="0.39" d=" M 1030.55 72.36 C 1038.91 71.48 1047.26 73.37 1055.52 74.54 L 1054.72 74.85 C 1054.16 75.07 1053.05 75.49 1052.49 75.70 C 1050.67 76.08 1048.81 75.36 1047.02 75.16 C 1041.55 74.04 1035.90 74.01 1030.55 72.36 Z" />
</g>
<g id="#0427009c">
<path fill="#042700" opacity="0.61" d=" M 1052.49 75.70 C 1053.05 75.49 1054.16 75.07 1054.72 74.85 C 1059.56 74.96 1064.34 76.21 1069.04 77.34 C 1069.84 77.93 1070.76 78.19 1071.78 78.12 C 1085.07 80.46 1097.89 85.27 1110.02 91.15 C 1110.88 86.17 1113.41 81.75 1116.48 77.81 C 1119.10 83.57 1121.81 90.41 1119.30 96.66 C 1123.81 99.66 1128.00 103.11 1131.88 106.90 C 1140.62 98.81 1153.56 98.05 1164.65 100.65 C 1159.70 106.32 1154.51 112.02 1148.05 115.99 C 1145.80 117.53 1143.07 117.89 1140.44 118.11 C 1145.05 126.13 1147.11 135.27 1147.60 144.45 C 1159.75 139.86 1173.38 141.75 1185.04 146.91 C 1176.79 153.71 1167.96 160.46 1157.57 163.53 C 1153.16 164.96 1148.75 163.21 1145.63 160.06 C 1140.15 184.49 1125.66 205.57 1110.74 225.20 C 1109.26 224.12 1107.74 223.08 1106.23 222.08 C 1115.70 211.18 1123.49 198.91 1130.06 186.07 L 1129.06 185.48 C 1129.40 185.15 1130.07 184.49 1130.40 184.16 C 1133.15 180.21 1134.31 175.44 1136.10 171.02 C 1120.97 168.61 1109.54 156.68 1103.09 143.42 C 1108.71 143.02 1114.32 143.78 1119.89 144.48 C 1127.04 145.64 1134.87 146.96 1140.07 152.50 C 1140.85 145.81 1140.30 139.04 1138.80 132.49 C 1126.80 133.13 1115.89 125.63 1109.43 115.98 C 1116.55 114.91 1123.77 114.12 1130.97 114.90 C 1127.31 109.78 1122.83 105.34 1118.06 101.27 C 1111.70 104.93 1103.94 104.78 1097.25 102.14 C 1100.21 99.00 1103.81 96.64 1107.48 94.41 C 1090.73 84.35 1071.46 79.56 1052.49 75.70 Z" />
</g>
<g id="#21190f48">
<path fill="#21190f" opacity="0.28" d=" M 1069.04 77.34 C 1070.47 76.12 1071.38 76.38 1071.78 78.12 C 1070.76 78.19 1069.84 77.93 1069.04 77.34 Z" />
</g>
</svg>
